<?xml version="1.0" encoding="us-ascii" standalone="no"?><svg xmlns="http://www.w3.org/2000/svg" xmlns:xlink="http://www.w3.org/1999/xlink" contentStyleType="text/css" height="305px" preserveAspectRatio="none" style="width:417px;height:305px;background:#FFFFFF;" version="1.1" viewBox="0 0 417 305" width="417px" zoomAndPan="magnify"><defs/><g><rect fill="#FFFFFF" height="214.9297" style="stroke:#181818;stroke-width:1.0;" width="10" x="41.5" y="46.2969"/><rect fill="#FFFFFF" height="193.7969" style="stroke:#181818;stroke-width:1.0;" width="10" x="341.5" y="67.4297"/><rect fill="none" height="170.7969" style="stroke:#000000;stroke-width:1.5;" width="400.5" x="10" y="82.4297"/><line style="stroke:#181818;stroke-width:0.5;stroke-dasharray:5.0,5.0;" x1="46" x2="46" y1="36.2969" y2="270.2266"/><line style="stroke:#181818;stroke-width:0.5;stroke-dasharray:5.0,5.0;" x1="346.5" x2="346.5" y1="36.2969" y2="270.2266"/><rect fill="#E2E2F0" height="30.2969" rx="2.5" ry="2.5" style="stroke:#181818;stroke-width:0.5;" width="53" x="20" y="5"/><text fill="#000000" font-family="sans-serif" font-size="14" lengthAdjust="spacing" textLength="39" x="27" y="24.9951">Client</text><rect fill="#E2E2F0" height="30.2969" rx="2.5" ry="2.5" style="stroke:#181818;stroke-width:0.5;" width="53" x="20" y="269.2266"/><text fill="#000000" font-family="sans-serif" font-size="14" lengthAdjust="spacing" textLength="39" x="27" y="289.2217">Client</text><rect fill="#FFA500" height="30.2969" rx="2.5" ry="2.5" style="stroke:#181818;stroke-width:0.5;" width="108" x="292.5" y="5"/><text fill="#000000" font-family="sans-serif" font-size="14" lengthAdjust="spacing" textLength="94" x="299.5" y="24.9951">OpenPlatform</text><rect fill="#FFA500" height="30.2969" rx="2.5" ry="2.5" style="stroke:#181818;stroke-width:0.5;" width="108" x="292.5" y="269.2266"/><text fill="#000000" font-family="sans-serif" font-size="14" lengthAdjust="spacing" textLength="94" x="299.5" y="289.2217">OpenPlatform</text><rect fill="#FFFFFF" height="214.9297" style="stroke:#181818;stroke-width:1.0;" width="10" x="41.5" y="46.2969"/><rect fill="#FFFFFF" height="193.7969" style="stroke:#181818;stroke-width:1.0;" width="10" x="341.5" y="67.4297"/><polygon fill="#181818" points="329.5,63.4297,339.5,67.4297,329.5,71.4297,333.5,67.4297" style="stroke:#181818;stroke-width:1.0;"/><line style="stroke:#181818;stroke-width:1.0;" x1="51.5" x2="335.5" y1="67.4297" y2="67.4297"/><text fill="#000000" font-family="sans-serif" font-size="13" lengthAdjust="spacing" textLength="264" x="58.5" y="62.3638">Request obtain the authorization address</text><path d="M10,82.4297 L74,82.4297 L74,89.5625 L64,99.5625 L10,99.5625 L10,82.4297 " fill="#EEEEEE" style="stroke:#000000;stroke-width:1.5;"/><rect fill="none" height="170.7969" style="stroke:#000000;stroke-width:1.5;" width="400.5" x="10" y="82.4297"/><text fill="#000000" font-family="sans-serif" font-size="13" font-weight="bold" lengthAdjust="spacing" textLength="19" x="25" y="95.4966">alt</text><text fill="#000000" font-family="sans-serif" font-size="11" font-weight="bold" lengthAdjust="spacing" textLength="97" x="89" y="94.6401">[Device online]</text><polygon fill="#181818" points="62.5,116.6953,52.5,120.6953,62.5,124.6953,58.5,120.6953" style="stroke:#181818;stroke-width:1.0;"/><line style="stroke:#181818;stroke-width:1.0;" x1="56.5" x2="340.5" y1="120.6953" y2="120.6953"/><text fill="#000000" font-family="sans-serif" font-size="13" lengthAdjust="spacing" textLength="205" x="68.5" y="115.6294">Response authorization address</text><path d="M56,133.6953 L56,158.6953 L287,158.6953 L287,143.6953 L277,133.6953 L56,133.6953 " fill="#FEFFDD" style="stroke:#181818;stroke-width:0.5;"/><path d="M277,133.6953 L277,143.6953 L287,143.6953 L277,133.6953 " fill="#FEFFDD" style="stroke:#181818;stroke-width:0.5;"/><text fill="#000000" font-family="sans-serif" font-size="13" lengthAdjust="spacing" textLength="210" x="62" y="150.7622">Obtain the authorization address</text><polygon fill="#181818" points="329.5,180.9609,339.5,184.9609,329.5,188.9609,333.5,184.9609" style="stroke:#181818;stroke-width:1.0;"/><line style="stroke:#181818;stroke-width:1.0;" x1="51.5" x2="335.5" y1="184.9609" y2="184.9609"/><text fill="#000000" font-family="sans-serif" font-size="13" lengthAdjust="spacing" textLength="81" x="58.5" y="179.895">Http request</text><polygon fill="#181818" points="62.5,210.0938,52.5,214.0938,62.5,218.0938,58.5,214.0938" style="stroke:#181818;stroke-width:1.0;"/><line style="stroke:#181818;stroke-width:1.0;" x1="56.5" x2="340.5" y1="214.0938" y2="214.0938"/><text fill="#000000" font-family="sans-serif" font-size="13" lengthAdjust="spacing" textLength="91" x="68.5" y="209.0278">Http response</text><line style="stroke:#000000;stroke-width:1.0;stroke-dasharray:2.0,2.0;" x1="10" x2="410.5" y1="223.0938" y2="223.0938"/><polygon fill="#181818" points="62.5,241.2266,52.5,245.2266,62.5,249.2266,58.5,245.2266" style="stroke:#181818;stroke-width:1.0;"/><line style="stroke:#181818;stroke-width:1.0;" x1="56.5" x2="340.5" y1="245.2266" y2="245.2266"/><text fill="#000000" font-family="sans-serif" font-size="13" lengthAdjust="spacing" textLength="266" x="68.5" y="240.1606">Failed to obtain the authorization address</text></g></svg>